<svg xmlns="http://www.w3.org/2000/svg" width="192" height="192" viewBox="0 0 192 192" fill="none" role="img" aria-labelledby="title desc">
  <title id="title">Ember Bomber</title>
  <desc id="desc">A top-down demolition brute with a squat furnace shell, asymmetrical bomb drums, glowing fuses, blast goggles, and a volatile ember core.</desc>
  <defs>
    <linearGradient id="coat" x1="46" y1="43" x2="139" y2="170" gradientUnits="userSpaceOnUse">
      <stop stop-color="#7D3B30"/>
      <stop offset="0.28" stop-color="#512522"/>
      <stop offset="0.65" stop-color="#271519"/>
      <stop offset="1" stop-color="#0B0B10"/>
    </linearGradient>
    <linearGradient id="iron" x1="41" y1="37" x2="155" y2="157" gradientUnits="userSpaceOnUse">
      <stop stop-color="#8A7764"/>
      <stop offset="0.2" stop-color="#4F4540"/>
      <stop offset="0.56" stop-color="#24252A"/>
      <stop offset="0.82" stop-color="#101217"/>
      <stop offset="1" stop-color="#665249"/>
    </linearGradient>
    <linearGradient id="copper" x1="46" y1="42" x2="141" y2="153" gradientUnits="userSpaceOnUse">
      <stop stop-color="#FFD17A"/>
      <stop offset="0.2" stop-color="#D67835"/>
      <stop offset="0.52" stop-color="#8B3B27"/>
      <stop offset="0.78" stop-color="#3B1B1B"/>
      <stop offset="1" stop-color="#C76431"/>
    </linearGradient>
    <radialGradient id="furnace" cx="0" cy="0" r="1" gradientTransform="translate(96 112) rotate(90) scale(34)">
      <stop stop-color="#FFFFFF"/>
      <stop offset="0.12" stop-color="#FFF0A3"/>
      <stop offset="0.32" stop-color="#FFB52E"/>
      <stop offset="0.58" stop-color="#F04A25"/>
      <stop offset="1" stop-color="#54161B"/>
    </radialGradient>
    <radialGradient id="spark" cx="0" cy="0" r="1" gradientTransform="translate(0 0) rotate(90) scale(1)">
      <stop stop-color="#FFFFFF"/>
      <stop offset="0.28" stop-color="#FFE27A"/>
      <stop offset="1" stop-color="#F05A25" stop-opacity="0"/>
    </radialGradient>
    <pattern id="soot" width="17" height="17" patternUnits="userSpaceOnUse">
      <circle cx="4" cy="5" r="2" fill="#050609" fill-opacity="0.2"/>
      <circle cx="13" cy="12" r="1.5" fill="#F2B16D" fill-opacity="0.08"/>
      <path d="M1 15L7 12M11 4L16 1" stroke="#020305" stroke-opacity="0.16" stroke-width="2"/>
    </pattern>
    <filter id="emberGlow" x="-100%" y="-100%" width="300%" height="300%">
      <feGaussianBlur stdDeviation="3.2" result="blur"/>
      <feMerge><feMergeNode in="blur"/><feMergeNode in="SourceGraphic"/></feMerge>
    </filter>
    <filter id="sparkGlow" x="-100%" y="-100%" width="300%" height="300%">
      <feGaussianBlur stdDeviation="1.7" result="blur"/>
      <feMerge><feMergeNode in="blur"/><feMergeNode in="SourceGraphic"/></feMerge>
    </filter>
    <clipPath id="coatClip">
      <path d="M96 49C68 47 46 62 40 88L32 119L46 144L69 136L77 174L96 158L116 174L124 136L148 145L160 119L152 87C145 61 124 47 96 49Z"/>
    </clipPath>
  </defs>

  <ellipse cx="97" cy="158" rx="73" ry="23" fill="#030406" fill-opacity="0.76"/>
  <ellipse cx="96" cy="153" rx="55" ry="14" fill="#4A211B" fill-opacity="0.44" stroke="#D77B45" stroke-opacity="0.2" stroke-width="2"/>

  <!-- Blast warning halo and loose sparks. -->
  <circle cx="96" cy="103" r="76" stroke="#F0642D" stroke-opacity="0.13" stroke-width="10" stroke-dasharray="27 18"/>
  <circle cx="96" cy="103" r="68" stroke="#FFB23B" stroke-opacity="0.28" stroke-width="2.5" stroke-dasharray="5 13"/>
  <g fill="#FFD96B" filter="url(#sparkGlow)">
    <path d="M25 83L30 74L34 84L30 91Z"/>
    <path d="M161 82L166 73L170 83L166 90Z"/>
    <path d="M39 137L44 129L48 138L43 144Z"/>
    <circle cx="151" cy="137" r="3"/><circle cx="31" cy="109" r="2.5"/>
  </g>

  <!-- Squat fireproof coat and weighted boots. -->
  <path d="M96 49C68 47 46 62 40 88L32 119L46 144L69 136L77 174L96 158L116 174L124 136L148 145L160 119L152 87C145 61 124 47 96 49Z" fill="url(#coat)" stroke="#050609" stroke-width="8" stroke-linejoin="round"/>
  <g clip-path="url(#coatClip)">
    <rect x="27" y="43" width="138" height="136" fill="url(#soot)"/>
    <path d="M35 95C58 82 76 84 96 95C118 107 138 104 157 91V117C135 129 116 129 96 118C75 107 56 110 35 123Z" fill="#D86538" fill-opacity="0.17"/>
    <path d="M95 70L69 148M97 70V158M100 70L126 148" stroke="#100B0D" stroke-width="8" stroke-linecap="round"/>
    <path d="M90 72L68 137M104 72L127 137" stroke="#E59862" stroke-opacity="0.25" stroke-width="2"/>
  </g>
  <path d="M69 137L81 150L77 176L58 181L53 166Z" fill="#111116" stroke="#050609" stroke-width="6" stroke-linejoin="round"/>
  <path d="M123 137L111 150L116 176L135 181L140 166Z" fill="#111116" stroke="#050609" stroke-width="6" stroke-linejoin="round"/>
  <path d="M61 170L76 166M131 170L116 166" stroke="#B1744C" stroke-opacity="0.55" stroke-width="3"/>

  <!-- Shoulder bomb drums create a deliberately uneven silhouette. -->
  <path d="M52 54C35 53 24 66 25 84L30 115L49 127L65 114L66 74Z" fill="url(#iron)" stroke="#050609" stroke-width="7"/>
  <path d="M140 58C156 57 168 69 168 86L163 121L144 131L128 115L128 77Z" fill="url(#copper)" stroke="#050609" stroke-width="7"/>
  <path d="M31 76H64M29 95H65M132 80H166M130 102H165" stroke="#E9B27A" stroke-opacity="0.5" stroke-width="3"/>
  <g fill="#E9C18A" stroke="#2A1714" stroke-width="2">
    <circle cx="38" cy="67" r="3"/><circle cx="57" cy="67" r="3"/><circle cx="35" cy="108" r="3"/><circle cx="57" cy="113" r="3"/>
    <circle cx="139" cy="71" r="3"/><circle cx="158" cy="72" r="3"/><circle cx="137" cy="115" r="3"/><circle cx="157" cy="114" r="3"/>
  </g>
  <path d="M38 55C36 43 42 35 51 36C61 36 64 47 60 55" stroke="#271619" stroke-width="8" stroke-linecap="round"/>
  <path d="M38 54C37 45 42 40 49 40C56 40 59 46 58 54" stroke="#E06C32" stroke-width="3" stroke-linecap="round"/>
  <path d="M148 59C151 47 147 39 138 35C130 31 124 39 128 49" stroke="#251518" stroke-width="8" stroke-linecap="round"/>
  <path d="M148 58C150 49 146 43 139 40C133 37 129 42 130 49" stroke="#F0A63B" stroke-width="3" stroke-linecap="round"/>
  <circle cx="50" cy="39" r="5" fill="#FFF3A4" filter="url(#emberGlow)"/>
  <path d="M135 36L139 26L143 37L139 45Z" fill="#FFF09A" filter="url(#emberGlow)"/>

  <!-- Helmet, blast goggles, and vent stack. -->
  <path d="M96 28C77 28 63 43 64 62L73 83L96 94L119 83L128 62C128 43 115 28 96 28Z" fill="url(#iron)" stroke="#050609" stroke-width="7"/>
  <path d="M76 42L82 25L96 19L111 25L117 42" fill="#343136" stroke="#050609" stroke-width="6" stroke-linejoin="round"/>
  <path d="M87 28L87 14H104V28" fill="#2B292C" stroke="#050609" stroke-width="5"/>
  <path d="M89 15H102M89 20H102" stroke="#C07A4B" stroke-width="2.5"/>
  <path d="M72 55C82 48 110 48 120 55L116 72C106 80 85 80 75 72Z" fill="#0A0B0F" stroke="#7C5C4D" stroke-width="3"/>
  <path d="M76 57L92 54L91 68L77 69ZM116 57L100 54L101 68L115 69Z" fill="#E45E2D" filter="url(#emberGlow)"/>
  <circle cx="85" cy="61" r="3" fill="#FFF4B6"/><circle cx="107" cy="61" r="3" fill="#FFF4B6"/>
  <path d="M91 76L96 80L101 76" stroke="#B77C58" stroke-width="2"/>

  <!-- Furnace core and pressure frame. -->
  <path d="M66 91L78 78H114L127 91L122 130L96 145L70 130Z" fill="#151318" stroke="#050609" stroke-width="6"/>
  <path d="M72 94H120M76 84L70 129M116 84L122 129" stroke="url(#copper)" stroke-width="6"/>
  <circle cx="96" cy="112" r="28" fill="#2C1718" stroke="#09070A" stroke-width="5"/>
  <circle cx="96" cy="112" r="21" fill="url(#furnace)" filter="url(#emberGlow)"/>
  <path d="M82 117C86 106 91 103 96 94C98 104 110 105 109 117C108 126 102 132 95 132C87 132 80 126 82 117Z" fill="#FFF0A0"/>
  <path d="M90 120C91 114 96 110 98 104C101 111 105 115 103 122C102 126 99 128 96 128C92 128 89 125 90 120Z" fill="#FFFFFF"/>
  <path d="M77 106H83M109 106H115M77 119H83M109 119H115" stroke="#2A0D0C" stroke-width="3"/>
  <circle cx="96" cy="112" r="4" fill="#FFFFFF"/>

  <!-- Bomb cradle, hands, and wired detonator. -->
  <path d="M54 103L41 115L49 130L66 118Z" fill="#3F2925" stroke="#050609" stroke-width="5"/>
  <path d="M138 103L151 115L143 130L126 118Z" fill="#3F2925" stroke="#050609" stroke-width="5"/>
  <circle cx="54" cy="119" r="8" fill="#A44B2B" stroke="#351513" stroke-width="3"/>
  <circle cx="138" cy="119" r="8" fill="#A44B2B" stroke="#351513" stroke-width="3"/>
  <path d="M56 123C66 135 80 138 96 138C113 138 127 134 137 123" stroke="#111014" stroke-width="9" stroke-linecap="round"/>
  <path d="M57 121C69 131 81 134 96 134C112 134 124 131 136 121" stroke="#C46B36" stroke-width="3" stroke-linecap="round"/>
  <path d="M78 140L88 132H105L115 140L108 152H84Z" fill="#202027" stroke="#050609" stroke-width="4"/>
  <path d="M87 139H105M91 145H101" stroke="#F7A53D" stroke-width="2.5" filter="url(#sparkGlow)"/>

  <!-- Heat cracks and cinders. -->
  <g stroke="#F46A2C" stroke-linecap="round" filter="url(#sparkGlow)">
    <path d="M63 130L71 124L77 131L84 126" stroke-width="3"/>
    <path d="M129 130L121 124L115 131L108 126" stroke-width="3"/>
    <path d="M77 153L84 146M115 153L108 146" stroke-width="2.5"/>
  </g>
  <g fill="#FFF0A3">
    <circle cx="22" cy="102" r="2.5"/><circle cx="174" cy="111" r="2.5"/>
    <path d="M69 165L73 159L77 165L73 170ZM123 165L119 159L115 165L119 170Z"/>
  </g>
</svg>
